<svg id="Icons" height="512" viewBox="0 0 74 74" width="512" xmlns="http://www.w3.org/2000/svg"><path d="m36.5 49.961a4.115 4.115 0 1 1 4.115-4.116 4.12 4.12 0 0 1 -4.115 4.116zm0-6.231a2.115 2.115 0 1 0 2.115 2.115 2.118 2.118 0 0 0 -2.115-2.115z"/><path d="m45 58.961a4.115 4.115 0 1 1 4.115-4.115 4.12 4.12 0 0 1 -4.115 4.115zm0-6.231a2.115 2.115 0 1 0 2.115 2.116 2.118 2.118 0 0 0 -2.115-2.116z"/><path d="m34 65.077a5.116 5.116 0 1 1 5.115-5.116 5.121 5.121 0 0 1 -5.115 5.116zm0-8.231a3.116 3.116 0 1 0 3.115 3.116 3.119 3.119 0 0 0 -3.115-3.117z"/><path d="m51.07 42.023a1 1 0 0 1 -.588-1.81l15.369-11.13a10.033 10.033 0 1 0 -11.768-16.251l-15.368 11.13a1 1 0 0 1 -1.174-1.62l15.369-11.13a12.033 12.033 0 0 1 14.115 19.488l-15.369 11.133a1 1 0 0 1 -.586.19z"/><path d="m49.536 42.479c-2.811 0-6.595-2.594-9.729-6.922a20.724 20.724 0 0 1 -3.578-7.543c-.557-2.642-.091-4.656 1.312-5.672 1.4-1.015 3.461-.83 5.8.523a20.735 20.735 0 0 1 6.05 5.753c4.024 5.556 5 11.237 2.268 13.215a3.542 3.542 0 0 1 -2.123.646zm-9.871-18.779a1.59 1.59 0 0 0 -.95.264c-.7.509-.9 1.87-.527 3.639a18.724 18.724 0 0 0 3.24 6.783c3.368 4.651 7.563 6.912 9.056 5.83s.655-5.772-2.713-10.422a18.738 18.738 0 0 0 -5.433-5.2 5.706 5.706 0 0 0 -2.673-.894z"/><path d="m22.93 42.023a1 1 0 0 1 -.586-.19l-15.369-11.133a12.033 12.033 0 1 1 14.114-19.488l15.37 11.13a1 1 0 0 1 -1.174 1.62l-15.369-11.13a10.032 10.032 0 1 0 -11.768 16.251l15.369 11.13a1 1 0 0 1 -.588 1.81z"/><path d="m24.464 42.479a3.539 3.539 0 0 1 -2.12-.646c-2.73-1.979-1.757-7.66 2.268-13.215a20.735 20.735 0 0 1 6.05-5.753c2.336-1.354 4.4-1.539 5.8-.523 1.4 1.016 1.868 3.03 1.312 5.672a20.724 20.724 0 0 1 -3.578 7.543c-3.137 4.328-6.922 6.922-9.732 6.922zm9.871-18.779a5.706 5.706 0 0 0 -2.672.9 18.738 18.738 0 0 0 -5.433 5.2c-3.368 4.65-4.21 9.338-2.713 10.422s5.687-1.178 9.056-5.83a18.724 18.724 0 0 0 3.24-6.783c.373-1.77.176-3.13-.527-3.639a1.59 1.59 0 0 0 -.951-.27z"/></svg>